HIERARCHY
ROOT Hips
{
    OFFSET 0.0 0.0 0.0
    CHANNELS 6 Xposition Yposition Zposition Zrotation Xrotation Yrotation
    JOINT LHipJoint
    {
        OFFSET 0.1 0.0 0.0
        CHANNELS 3 Zrotation Xrotation Yrotation
        JOINT LeftHip
        {
            OFFSET 0.12638065218925476 0.0 0.0
            CHANNELS 3 Zrotation Xrotation Yrotation
            JOINT LeftKnee
            {
                OFFSET 0.0 0.0 -0.4810442328453064
                CHANNELS 3 Zrotation Xrotation Yrotation
                JOINT LeftAnkle
                {
                    OFFSET 0.0 0.0 -0.5107405781745911
                    CHANNELS 3 Zrotation Xrotation Yrotation
                    End Site
                    {
                        OFFSET 0.0 -0.1 0.0
                    }
                }
            }
        }
    }
    JOINT lowerback
    {
        OFFSET 0.0 0.0 0.1
        CHANNELS 3 Zrotation Xrotation Yrotation
        JOINT Chest
        {
            OFFSET 0.0 0.0 0.23785249888896942
            CHANNELS 3 Zrotation Xrotation Yrotation
            JOINT Chest2
            {
                OFFSET 0.0 0.0 0.2519071698188782
                CHANNELS 3 Zrotation Xrotation Yrotation
                JOINT LeftCollar
                {
                    OFFSET 0.1 0.0 0.0
                    CHANNELS 3 Zrotation Xrotation Yrotation
                    JOINT LeftShoulder
                    {
                        OFFSET 0.13281404972076416 0.0 0.0
                        CHANNELS 3 Zrotation Xrotation Yrotation
                        JOINT LeftElbow
                        {
                            OFFSET 0.271801233291626 0.0 0.0
                            CHANNELS 3 Zrotation Xrotation Yrotation
                            JOINT LeftWrist
                            {
                                OFFSET 0.22647902369499207 0.0 0.0
                                CHANNELS 3 Zrotation Xrotation Yrotation
                                End Site
                                {
                                    OFFSET 0.1 0.0 0.0
                                }
                            }
                        }
                    }
                }
                JOINT Neck
                {
                    OFFSET 0.0 0.0 0.1
                    CHANNELS 3 Zrotation Xrotation Yrotation
                    JOINT Head
                    {
                        OFFSET 0.0 0.0 0.12097389250993729
                        CHANNELS 3 Zrotation Xrotation Yrotation
                        End Site
                        {
                            OFFSET 0.0 0.0 0.12235970795154572
                        }
                    }
                }
                JOINT RightCollar
                {
                    OFFSET -0.1 0.0 0.0
                    CHANNELS 3 Zrotation Xrotation Yrotation
                    JOINT RightShoulder
                    {
                        OFFSET -0.13281404972076416 0.0 0.0
                        CHANNELS 3 Zrotation Xrotation Yrotation
                        JOINT RightElbow
                        {
                            OFFSET -0.271801233291626 0.0 0.0
                            CHANNELS 3 Zrotation Xrotation Yrotation
                            JOINT RightWrist
                            {
                                OFFSET -0.22647902369499207 0.0 0.0
                                CHANNELS 3 Zrotation Xrotation Yrotation
                                End Site
                                {
                                    OFFSET -0.1 0.0 0.0
                                }
                            }
                        }
                    }
                }
            }
        }
    }
    JOINT RHipJoint
    {
        OFFSET -0.1 0.0 0.0
        CHANNELS 3 Zrotation Xrotation Yrotation
        JOINT RightHip
        {
            OFFSET -0.12638065218925476 0.0 0.0
            CHANNELS 3 Zrotation Xrotation Yrotation
            JOINT RightKnee
            {
                OFFSET 0.0 0.0 -0.4810442328453064
                CHANNELS 3 Zrotation Xrotation Yrotation
                JOINT RightAnkle
                {
                    OFFSET 0.0 0.0 -0.5107405781745911
                    CHANNELS 3 Zrotation Xrotation Yrotation
                    End Site
                    {
                        OFFSET 0.0 -0.1 0.0
                    }
                }
            }
        }
    }
}
MOTION
Frames: 4
Frame Time: 0.03333333333333333
1.0915755410678685e-08 0.9294613003730774 -1.3291642972035334e-05 -112.5870024288024 -79.24231591837538 -114.6703163772505 7.951386703658792e-16 -4.969616689786745e-17 3.4483642953516864e-34 0.6335422358573545 -12.848022926776672 -13.95136186764426 -5.042628186228692 16.229293519965882 24.547766528388276 -1.5902773407317584e-15 0.0 0.0 7.951386703658792e-16 -4.969616689786745e-17 3.4483642953516864e-34 -0.20132199018243363 4.185505778744003 1.9864833391901555 -1.2442538573155963 -9.482994954482413e-07 8.583103487234286e-08 -4.344939012143125e-32 6.2617170291312985e-15 7.951386703658792e-16 -71.72254269059263 -41.20799128887444 -54.3982672373977 -118.88229530645155 -2.078985448077382e-06 -1.2152054105310238e-06 1.987846675914698e-15 -1.3793457181406746e-32 -7.951386703658792e-16 -4.344939012143125e-32 6.2617170291312985e-15 7.951386703658792e-16 -4.255097169393821 -0.8332681803758484 3.928202989875938 -4.344939012143125e-32 6.2617170291312985e-15 7.951386703658792e-16 54.505045763089875 -41.910954522913215 37.47324263968876 105.74455557192938 -1.7214935328264632e-06 2.113871866800285e-06 1.5902773407317584e-15 -4.4139062980501586e-32 -3.1805546814635168e-15 7.951386703658792e-16 -4.969616689786745e-17 3.4483642953516864e-34 0.33036276547536403 -6.904715987256687 8.207278803311961 2.030871009940441 20.310141315107735 2.489734207607169 0.0 0.0 -1.5902773407317582e-15
4.536759661277756e-07 0.9294607043266296 -1.3036340533290058e-05 -112.6548434837085 -79.58743703475197 -114.28540078891416 0.0 6.3611093629270335e-15 0.0 0.6184048720545707 -12.83617149711778 -14.626599669828238 -5.246738996825769 16.256899276007577 24.5566462690249 -1.5902773407317584e-15 -6.3611093629270335e-15 -8.827812596100317e-32 0.0 6.3611093629270335e-15 0.0 -0.20974608467995204 4.464120364668264 1.5517303601232282 -1.8630561260174265 -1.9530984241307893e-06 3.529749064263346e-07 0.0 6.46050169672277e-15 0.0 -70.8207794161473 -39.180191278128646 -53.89390600239856 -116.83909319544681 -1.9051704426966237e-06 4.928789040331342e-07 -3.975693351829396e-16 2.758691436281349e-33 -7.951386703658792e-16 0.0 6.46050169672277e-15 0.0 -6.083339193790683 -0.3817373826008288 2.3208662676548983 0.0 6.46050169672277e-15 0.0 52.2984654146532 -42.46595637237995 36.630359339140256 108.14726775029216 -2.413495341220193e-06 -6.060094006279119e-07 -1.5902773407317584e-15 6.361109362927033e-15 1.5902773407317584e-15 0.0 6.3611093629270335e-15 0.0 0.3004845719030791 -6.439947412863908 7.784972805844471 1.8061273533606446 19.401981107340692 2.009366786058127 -1.5902773407317582e-15 -6.361109362927033e-15 -8.827812596100317e-32
-1.1848806025227532e-07 0.9294582009315491 -1.2816035450669006e-05 -111.12867880064032 -79.01280007139513 -112.34267007772304 7.951386703658791e-16 4.9696166897867443e-17 -3.4483642953516864e-34 0.475801259264985 -12.69850992433801 -14.464380335291207 -5.0348977181924095 16.37431796656124 23.159880858523792 0.0 4.969616689786745e-17 0.0 7.951386703658791e-16 4.9696166897867443e-17 -3.4483642953516864e-34 -0.1639201527617549 4.4962138039763335 1.0931772396847201 -1.3667468221495092 -1.2601368519908943e-06 3.6797484292571873e-07 -7.951386703658791e-16 -6.361109362927033e-15 -4.4139062980501586e-32 -69.18664631302101 -38.70903464261659 -52.7323663401835 -117.7497774633109 -6.043882956770345e-06 2.991663226924297e-06 0.0 0.0 3.9756933518293955e-16 -7.951386703658791e-16 -6.361109362927033e-15 -4.4139062980501586e-32 -7.47902737125225 0.777479493322517 1.8106495502627264 -7.951386703658791e-16 -6.361109362927033e-15 -4.4139062980501586e-32 50.59754293281646 -42.75478441582086 34.211633081114904 109.71116704842291 2.652460504672147e-06 3.6943873599319647e-06 -2.385416011097637e-15 -3.310429723537619e-32 1.5902773407317582e-15 7.951386703658791e-16 4.9696166897867443e-17 -3.4483642953516864e-34 0.23709058277290437 -6.566423813145903 7.226532515154355 1.7464068093415728 18.654021905842818 1.7695265915911718 0.0 0.0 1.5902773407317584e-15
-2.002807377721183e-07 0.9294573068618774 -1.2630807759705931e-05 -107.19961232376443 -79.63564716268114 -108.15655715792204 0.0 0.0 0.0 0.47994170098472516 -13.603911059229885 -14.592440234044078 -5.162583419569161 16.75915551799798 23.164012318525643 0.0 0.0 0.0 0.0 0.0 0.0 -0.10332632202079897 3.0198596866465466 1.1972443888546318 -1.481153323385013 -1.5998188396137632e-06 -7.170787133886615e-07 7.951386703658792e-16 0.0 0.0 -71.25507602788261 -37.58723567215718 -54.90162742740087 -118.44294020970202 -1.66354944279167e-06 1.3152118775575447e-06 0.0 0.0 7.951386703658792e-16 7.951386703658792e-16 0.0 0.0 -7.22432066028113 1.879047334030986 -0.9953808237975161 7.951386703658792e-16 0.0 0.0 52.096138775925326 -42.821723794784695 35.56048263927371 112.12144298235172 -2.5863631432428496e-06 -2.69742370374017e-06 0.0 0.0 0.0 0.0 0.0 0.0 0.23175635541477171 -6.818099146382148 7.163444403274318 1.7497154892633213 18.478515518470928 1.5894069925624554 1.5902773407317582e-15 6.361109362927033e-15 -8.827812596100317e-32
